<svg width="209" height="32" viewBox="0 0 209 32" fill="none" xmlns="http://www.w3.org/2000/svg">
<path d="M4.11429 32H1.37143C0.612571 32 0 31.3874 0 30.6286V1.37143C0 0.612571 0.612571 0 1.37143 0H4.11429C4.87314 0 5.48571 0.612571 5.48571 1.37143V30.6286C5.48571 31.3874 4.87314 32 4.11429 32Z" fill="#1A54B8"/>
<path d="M18.5143 10.9486L12.768 0.361143C12.6446 0.137143 12.416 0 12.16 0H8.24231C7.72117 0 7.38746 0.557714 7.63888 1.01486L15.7715 16L7.63888 30.9851C7.39203 31.4423 7.72117 32 8.24231 32H12.16C12.4115 32 12.6446 31.8629 12.7635 31.6389L18.5143 21.0514L21.2572 16L18.5143 10.9486Z" fill="#1A54B8"/>
<path d="M33.2709 14.0846L40.3612 1.01486C40.608 0.557714 40.2789 0 39.7577 0H35.84C35.5886 0 35.3554 0.137143 35.2366 0.361143L30.528 9.03314L31.0949 10.0754L33.2709 14.0846Z" fill="#1A54B8"/>
<path d="M33.2709 17.9154L31.0949 21.9246L30.528 22.9669L35.2366 31.6389C35.3554 31.8629 35.584 32 35.84 32H39.7577C40.2789 32 40.6126 31.4423 40.3612 30.9852L33.2709 17.9154Z" fill="#1A54B8"/>
<path d="M29.4857 10.9486L23.7394 0.361143C23.616 0.137143 23.3874 0 23.1314 0H19.2137C18.6925 0 18.3588 0.557714 18.6103 1.01486L26.7428 16L18.6103 30.9851C18.3634 31.4423 18.6925 32 19.2137 32H23.1314C23.3828 32 23.616 31.8629 23.7348 31.6389L29.4857 21.0514L32.2285 16L29.4857 10.9486Z" fill="#1A54B8"/>
<path d="M45.3866 9.15199C45.3866 8.10514 45.3363 7.40114 45.19 6.37714C46.0403 6.42742 46.6986 6.45028 47.8689 6.45028H51.9831C57.414 6.45028 60.5043 9.75999 60.5043 15.5794C60.5043 18.624 59.5809 21.1566 57.8986 22.7886C56.4357 24.224 54.4151 24.9554 51.9831 24.9554H47.8689C46.6986 24.9554 46.0449 24.9783 45.19 25.0286C45.3363 24.0777 45.3866 23.3463 45.3866 22.1303V9.15199ZM51.9374 23.2503C53.862 23.2503 55.3934 22.688 56.4906 21.5223C57.83 20.16 58.534 18.0891 58.534 15.5794C58.534 13.0469 57.8986 11.0994 56.6094 9.81028C55.5397 8.69028 54.0266 8.15542 52.0334 8.15542H47.2883V23.2548H51.9374V23.2503Z" fill="black"/>
<path d="M66.5249 22.4731C65.9397 23.3737 65.478 24.1554 65.062 24.9554H62.2871C63.6266 23.2274 63.942 22.7657 64.454 22.0571L69.35 15.168L65.0391 9.07886C64.358 8.15543 63.7957 7.39657 63.0414 6.45029H65.7706C66.0631 7.10857 66.4791 7.81257 67.1329 8.76343L70.6163 13.9017L73.9763 8.76343C74.8266 7.47429 75.046 7.10857 75.3157 6.45029H78.0677C77.3866 7.27772 76.7786 8.08229 76.0471 9.10629L71.7637 15.168L76.6323 22.0114C77.094 22.6697 77.6791 23.4469 78.8723 24.96H76.07C75.366 23.744 75.0963 23.2777 74.5614 22.5006L70.5431 16.4846L66.5249 22.4731Z" fill="black"/>
<path d="M89.3409 24.9554C89.4871 24.0777 89.5374 23.3737 89.5374 22.2263V9.15199C89.5374 8.15542 89.4871 7.40114 89.3409 6.37714C90.2186 6.42742 90.8997 6.45028 92.0197 6.45028H96.9888C100.737 6.45028 102.859 8.37485 102.859 11.7577C102.859 15.3371 100.669 17.408 96.87 17.408H91.4391V22.2034C91.4391 23.3737 91.4894 24.128 91.6357 24.9554H89.3409ZM96.8654 15.7257C99.4483 15.7257 100.907 14.336 100.907 11.8537C100.907 9.41714 99.494 8.12799 96.8654 8.12799H91.4346V15.7257H96.8654Z" fill="black"/>
<path d="M114.881 23.3737C114.881 23.104 114.881 22.9349 114.955 22.304C113.739 24.3017 112.225 25.2023 110.036 25.2023C108.28 25.2023 106.918 24.5669 106.141 23.4011C105.702 22.6926 105.46 21.7463 105.46 20.576V14.56C105.46 13.4629 105.409 12.6126 105.291 11.8309H107.48C107.357 12.6811 107.311 13.5131 107.311 14.5829V20.256C107.311 22.4229 108.358 23.6389 110.26 23.6389C111.649 23.6389 112.792 23.0309 113.766 21.7143C114.401 20.864 114.667 20.2514 114.886 19.2777V14.5829C114.886 13.536 114.836 12.6857 114.717 11.8309H116.884C116.76 12.6811 116.715 13.4629 116.715 14.5829V22.2034C116.715 23.3006 116.765 23.9817 116.911 24.9554H114.891V23.3737H114.881Z" fill="black"/>
<path d="M120.363 24.9554C120.486 24.032 120.532 23.3234 120.532 22.1531V9.20229C120.532 8.17829 120.481 7.40114 120.363 6.45029H122.507C122.383 7.35086 122.337 8.05486 122.337 9.22514V12.512C122.337 13.1703 122.315 13.6091 122.241 14.24C123.384 12.4389 125.044 11.5611 127.256 11.5611C131.005 11.5611 133.245 14.0937 133.245 18.3314C133.245 22.6194 130.955 25.1977 127.156 25.1977C125.62 25.1977 124.5 24.8091 123.38 23.8811C122.845 23.4651 122.625 23.2 122.237 22.6149C122.287 23.0766 122.31 23.2731 122.31 23.5886V24.9509H120.363V24.9554ZM127.105 13.12C124.23 13.12 122.333 15.2137 122.333 18.3314C122.333 21.472 124.235 23.616 127.032 23.616C129.761 23.616 131.366 21.6411 131.366 18.3086C131.371 15.0217 129.812 13.12 127.105 13.12Z" fill="black"/>
<path d="M138.283 6.45028C138.159 7.32799 138.113 7.98628 138.113 9.20228V22.2309C138.113 23.328 138.164 23.9863 138.283 24.96H136.093C136.216 24.0823 136.262 23.328 136.262 22.2309V9.17485C136.262 7.98171 136.212 7.32342 136.093 6.44571H138.283V6.45028Z" fill="black"/>
<path d="M144.079 6.45029V8.61714H141.716V6.45029H144.079V6.45029ZM143.983 11.8309C143.86 12.6811 143.814 13.3669 143.814 14.5829V22.2034C143.814 23.3234 143.864 24.0046 143.983 24.9554H141.793C141.917 23.9086 141.963 23.2274 141.963 22.2034V14.5829C141.963 13.4126 141.912 12.6857 141.793 11.8309H143.983Z" fill="black"/>
<path d="M148.829 21.0606C148.998 21.9611 149.195 22.4 149.679 22.8389C150.287 23.3966 151.261 23.6891 152.504 23.6891C154.621 23.6891 155.96 22.7886 155.96 21.3531C155.96 20.672 155.718 20.16 155.206 19.8446C154.621 19.4789 154.136 19.3326 152.331 18.9669C150.383 18.5509 149.556 18.2629 148.728 17.7006C147.878 17.1154 147.412 16.2149 147.412 15.1451C147.412 14.2674 147.777 13.44 148.459 12.7817C149.309 11.9543 150.625 11.5154 152.257 11.5154C153.912 11.5154 155.206 11.904 156.079 12.6857C156.715 13.2206 157.053 13.7829 157.368 14.9029L155.444 15.2183C155.297 14.56 155.174 14.2674 154.836 13.9291C154.278 13.3211 153.4 13.0057 152.303 13.0057C150.525 13.0057 149.259 13.9063 149.259 15.1954C149.259 15.7531 149.551 16.2423 150.086 16.5349C150.644 16.8503 151.279 17.0469 152.788 17.3623C155.151 17.8971 155.928 18.1897 156.66 18.752C157.414 19.36 157.83 20.288 157.83 21.2846C157.83 23.7211 155.759 25.2297 152.422 25.2297C150.205 25.2297 148.5 24.5714 147.599 23.328C147.233 22.816 147.064 22.4046 146.822 21.4034L148.829 21.0606Z" fill="black"/>
<path d="M160.614 24.9554C160.737 24.0777 160.783 23.4194 160.783 22.2034V9.20229C160.783 7.98629 160.733 7.35086 160.614 6.45029H162.781C162.635 7.35086 162.584 7.98629 162.584 9.22514V13.3394C162.584 13.728 162.584 13.9246 162.511 14.5554C163 13.7509 163.265 13.3851 163.851 12.9006C164.897 12 166.017 11.584 167.503 11.584C170.351 11.584 172.056 13.2663 172.056 16.1143V22.2263C172.056 23.3463 172.107 24.0549 172.225 24.9554H170.036C170.159 24.1509 170.205 23.4194 170.205 22.2034V16.4571C170.205 14.3406 169.158 13.1931 167.256 13.1931C165.894 13.1931 164.774 13.7783 163.823 14.9714C163.142 15.8491 162.827 16.5074 162.607 17.5269V22.2034C162.607 23.2731 162.657 24.0046 162.776 24.9554H160.614Z" fill="black"/>
<path d="M177.972 6.45029V8.61714H175.608V6.45029H177.972V6.45029ZM177.876 11.8309C177.752 12.6811 177.707 13.3669 177.707 14.5829V22.2034C177.707 23.3234 177.757 24.0046 177.876 24.9554H175.686C175.809 23.9086 175.855 23.2274 175.855 22.2034V14.5829C175.855 13.4126 175.805 12.6857 175.686 11.8309H177.876Z" fill="black"/>
<path d="M181.432 24.9554C181.579 24.032 181.629 23.3737 181.629 22.2034V14.5829C181.629 13.4857 181.579 12.8046 181.432 11.8309H183.453V13.4857C183.453 13.7783 183.453 13.9703 183.38 14.5326C184.523 12.5349 186.109 11.584 188.299 11.584C190.054 11.584 191.416 12.2194 192.193 13.408C192.655 14.112 192.875 15.0171 192.875 16.2103V22.2263C192.875 23.4697 192.925 24.1509 193.044 24.9554H190.854C190.977 24.0046 191.023 23.2731 191.023 22.2034V16.5303C191.023 14.3406 189.976 13.1703 188.052 13.1703C186.689 13.1703 185.592 13.7783 184.568 15.0949C183.933 15.9223 183.645 16.5303 183.448 17.504V22.2034C183.448 23.2731 183.499 24.0046 183.617 24.9554H181.432V24.9554Z" fill="black"/>
<path d="M197.99 26.6606C198.333 27.1223 198.479 27.296 198.767 27.5109C199.691 28.3154 200.715 28.6537 202.031 28.6537C204.148 28.6537 205.633 27.7303 206.269 25.9749C206.511 25.2709 206.612 24.3931 206.708 22.3726C206.342 23.0309 206.072 23.3463 205.661 23.712C204.737 24.5394 203.371 24.9783 201.885 24.9783C198.209 24.9783 195.869 22.4229 195.869 18.3543C195.869 14.2126 198.255 11.584 202.031 11.584C204.148 11.584 205.707 12.4343 206.708 14.1394C206.685 13.7234 206.657 13.5314 206.657 13.216V11.8263H208.605C208.481 12.7771 208.436 13.408 208.436 14.5554V23.2731C208.436 25.6594 207.997 27.1954 207.023 28.3383C205.999 29.5314 204.175 30.1897 201.958 30.1897C199.549 30.1897 198.036 29.5086 196.431 27.7531L197.99 26.6606ZM201.985 23.4469C204.76 23.4469 206.612 21.3303 206.612 18.1623C206.612 15.0949 204.856 13.12 202.132 13.12C199.43 13.12 197.775 15.1177 197.775 18.3543C197.771 21.5223 199.38 23.4469 201.985 23.4469Z" fill="black"/>
</svg>
