<svg width="125" height="32" viewBox="0 0 125 32" fill="none" xmlns="http://www.w3.org/2000/svg">
<g clip-path="url(#clip0)">
<path d="M4.11429 32H1.37143C0.612571 32 0 31.3874 0 30.6286V1.37143C0 0.612571 0.612571 0 1.37143 0H4.11429C4.87314 0 5.48571 0.612571 5.48571 1.37143V30.6286C5.48571 31.3874 4.87314 32 4.11429 32Z" fill="#1A54B8"/>
<path d="M18.5143 10.9486L12.768 0.361143C12.6446 0.137143 12.416 0 12.16 0H8.24231C7.72117 0 7.38746 0.557714 7.63888 1.01486L15.7715 16L7.63888 30.9851C7.39203 31.4423 7.72117 32 8.24231 32H12.16C12.4115 32 12.6446 31.8629 12.7635 31.6389L18.5143 21.0514L21.2572 16L18.5143 10.9486Z" fill="#1A54B8"/>
<path d="M33.2709 14.0846L40.3612 1.01486C40.608 0.557714 40.2789 0 39.7577 0H35.84C35.5886 0 35.3554 0.137143 35.2366 0.361143L30.528 9.03314L31.0949 10.0754L33.2709 14.0846Z" fill="#1A54B8"/>
<path d="M33.2709 17.9154L31.0949 21.9246L30.528 22.9669L35.2366 31.6389C35.3554 31.8629 35.584 32 35.84 32H39.7577C40.2789 32 40.6126 31.4423 40.3612 30.9851L33.2709 17.9154Z" fill="#1A54B8"/>
<path d="M29.4857 10.9486L23.7394 0.361143C23.616 0.137143 23.3874 0 23.1314 0H19.2137C18.6925 0 18.3588 0.557714 18.6103 1.01486L26.7428 16L18.6103 30.9851C18.3634 31.4423 18.6925 32 19.2137 32H23.1314C23.3828 32 23.616 31.8629 23.7348 31.6389L29.4857 21.0514L32.2285 16L29.4857 10.9486Z" fill="#1A54B8"/>
<path d="M43.3829 9.21144C43.3829 8.17829 43.3326 7.48344 43.1909 6.47315C44.032 6.52344 44.6811 6.54629 45.8331 6.54629H49.8926C55.2503 6.54629 58.304 9.81487 58.304 15.5566C58.304 18.56 57.3897 21.0606 55.7349 22.6697C54.2949 24.0869 52.2971 24.8092 49.8971 24.8092H45.8377C44.6857 24.8092 44.0366 24.832 43.1954 24.8823C43.3417 23.9452 43.3874 23.2229 43.3874 22.0252V9.21144H43.3829ZM49.8469 23.1223C51.744 23.1223 53.2571 22.5692 54.3406 21.4172C55.6617 20.0732 56.3566 18.0297 56.3566 15.5566C56.3566 13.056 55.7303 11.136 54.4594 9.86058C53.4034 8.75429 51.9131 8.22858 49.9429 8.22858H45.2571V23.1269H49.8469V23.1223Z" fill="black"/>
<path d="M64.2332 22.3543C63.6572 23.2412 63.2 24.0137 62.7932 24.8046H60.0549C61.376 23.0994 61.6869 22.6423 62.1943 21.9474L67.0217 15.1497L62.7703 9.14287C62.0983 8.22858 61.5452 7.48344 60.8 6.5463H63.4926C63.7806 7.19544 64.1874 7.8903 64.8366 8.82744L68.2743 13.8972L71.5886 8.82744C72.4297 7.55201 72.6446 7.19544 72.9097 6.5463H75.6252C74.9532 7.36458 74.3497 8.15544 73.632 9.16572L69.4034 15.1497L74.208 21.9017C74.6652 22.5509 75.2412 23.3189 76.416 24.8092H73.6549C72.96 23.6069 72.6949 23.1497 72.1646 22.3817L68.2012 16.448L64.2332 22.3543Z" fill="black"/>
<path d="M87.9451 7.26858C87.9451 6.18515 87.8994 5.63658 87.776 5.08344H89.7234C89.6046 5.75544 89.5543 6.26286 89.5543 7.26858V13.3486H95.872V8.80915C95.872 8.13715 95.8491 7.60686 95.776 7.05372H97.5771C97.4811 7.74858 97.4583 8.20572 97.4583 8.87772V13.6594C97.4583 14.1394 97.4811 14.4777 97.5086 14.8846C97.0286 14.8617 96.4754 14.8343 96.0183 14.8343H89.5543V23.6297H96.7131V19.0629C96.7131 18.1989 96.6903 17.5954 96.5943 16.9966H98.4183C98.3223 17.6229 98.2994 18.1989 98.2994 19.136V24.5669C98.2994 25.4309 98.3451 25.9612 98.4411 26.5874H96.7131V25.1429H81.0971V26.5829H79.3691C79.4651 25.984 79.5154 25.3349 79.5154 24.5623V19.2777C79.5154 18.3634 79.4926 17.7417 79.3966 17.1383H81.2206C81.1246 17.7372 81.1017 18.2674 81.1017 19.1817V23.6252H87.9497V14.8343H81.9429C81.5086 14.8343 80.96 14.8572 80.4526 14.8846C80.4754 14.4274 80.5029 14.0663 80.5029 13.6594V8.90058C80.5029 8.30172 80.4526 7.72115 80.384 7.04915H82.1851C82.112 7.55201 82.0891 8.08229 82.0891 8.82744V13.344H87.9497V7.26858H87.9451Z" fill="black"/>
<path d="M105.029 17.9566C104.791 22.3314 104.334 24.5394 103.205 26.8206C102.77 26.3634 102.533 26.1714 101.861 25.7874C103.182 23.5749 103.689 20.2834 103.689 13.632V8.3703C103.689 7.26401 103.639 6.56915 103.52 5.82401H105.275C105.179 6.4503 105.157 7.33715 105.157 8.48915V11.7806H107.991V7.62515C107.991 6.68801 107.945 5.92001 107.849 5.31658H109.554C109.458 5.91544 109.435 6.68801 109.435 7.62515V11.7806C110.853 11.7577 111.045 11.7577 111.575 11.6617V13.2252C111.022 13.152 110.638 13.1292 109.317 13.1292H105.161C105.161 14.7154 105.138 15.4377 105.088 16.6126H107.707C108.667 16.6126 109.175 16.5897 109.723 16.5166C109.65 17.0194 109.65 17.4766 109.65 18.6286V24.0092C109.65 25.2343 109.673 25.9063 109.769 26.6514H108.064C108.16 25.9291 108.206 25.3532 108.206 23.9863V17.9566H105.029ZM114.062 13.2023C113.774 20.5303 113.175 23.5337 111.301 26.9212C110.798 26.3909 110.77 26.368 110.053 25.9612C111.182 24.1097 111.685 22.5509 112.119 19.424C112.503 16.6126 112.649 13.9703 112.649 8.70858C112.649 7.24115 112.626 6.78858 112.553 5.9703C113.106 6.04344 113.947 6.08915 114.958 6.08915H120.942C122.025 6.08915 122.912 6.03887 123.561 5.94287V7.57487C122.793 7.50172 121.879 7.45601 120.992 7.45601H114.144V9.5223C114.144 10.1943 114.121 10.7977 114.098 11.8766H120.009C121.093 11.8766 121.714 11.8537 122.121 11.7577L122.962 12.576C122.793 13.0103 122.77 13.0789 122.601 13.8012C122.263 15.0994 121.472 17.2389 120.846 18.5097C120.389 19.424 119.909 20.2149 119.333 21.056C120.677 22.8343 121.975 23.9634 124.114 25.2343C123.68 25.7646 123.465 26.0983 123.177 26.7017C121.111 25.2846 119.813 24.0594 118.418 22.2812C116.951 24.1554 115.776 25.2617 113.637 26.6789C113.326 26.1029 113.038 25.7417 112.626 25.3577C114.693 24.1783 116.037 23.0263 117.577 21.056C116.16 18.7474 115.415 16.6812 114.839 13.1977H114.062V13.2023ZM116.151 13.2023C116.681 16.1097 117.303 17.9109 118.482 19.808C119.758 17.8149 120.571 15.8217 121.198 13.2023H116.151Z" fill="black"/>
</g>
<defs>
<clipPath id="clip0">
<path d="M0 0H124.105V32H0V0Z" fill="white"/>
</clipPath>
</defs>
</svg>
