<svg width="125" height="32" viewBox="0 0 125 32" fill="none" xmlns="http://www.w3.org/2000/svg">
<g clip-path="url(#clip0)">
<path d="M4.11429 32H1.37143C0.612571 32 0 31.3874 0 30.6286V1.37143C0 0.612571 0.612571 0 1.37143 0H4.11429C4.87314 0 5.48571 0.612571 5.48571 1.37143V30.6286C5.48571 31.3874 4.87314 32 4.11429 32Z" fill="#1A54B8"/>
<path d="M18.5143 10.9486L12.768 0.361143C12.6446 0.137143 12.416 0 12.16 0H8.24231C7.72117 0 7.38746 0.557714 7.63888 1.01486L15.7715 16L7.63888 30.9851C7.39203 31.4423 7.72117 32 8.24231 32H12.16C12.4115 32 12.6446 31.8629 12.7635 31.6389L18.5143 21.0514L21.2572 16L18.5143 10.9486Z" fill="#1A54B8"/>
<path d="M33.2709 14.0846L40.3612 1.01486C40.608 0.557714 40.2789 0 39.7577 0H35.84C35.5886 0 35.3554 0.137143 35.2366 0.361143L30.528 9.03314L31.0949 10.0754L33.2709 14.0846Z" fill="#1A54B8"/>
<path d="M33.2709 17.9154L31.0949 21.9246L30.528 22.9669L35.2366 31.6389C35.3554 31.8629 35.584 32 35.84 32H39.7577C40.2789 32 40.6126 31.4423 40.3612 30.9851L33.2709 17.9154Z" fill="#1A54B8"/>
<path d="M29.4857 10.9486L23.7394 0.361143C23.616 0.137143 23.3874 0 23.1314 0H19.2137C18.6925 0 18.3588 0.557714 18.6103 1.01486L26.7428 16L18.6103 30.9851C18.3634 31.4423 18.6925 32 19.2137 32H23.1314C23.3828 32 23.616 31.8629 23.7348 31.6389L29.4857 21.0514L32.2285 16L29.4857 10.9486Z" fill="#1A54B8"/>
<path d="M45.3829 9.21144C45.3829 8.17829 45.3326 7.48344 45.1909 6.47315C46.032 6.52344 46.6811 6.54629 47.8331 6.54629H51.8926C57.2503 6.54629 60.304 9.81487 60.304 15.5566C60.304 18.56 59.3897 21.0606 57.7349 22.6697C56.2949 24.0869 54.2971 24.8092 51.8971 24.8092H47.8377C46.6857 24.8092 46.0366 24.832 45.1954 24.8823C45.3417 23.9452 45.3874 23.2229 45.3874 22.0252V9.21144H45.3829ZM51.8469 23.1223C53.744 23.1223 55.2571 22.5692 56.3406 21.4172C57.6617 20.0732 58.3566 18.0297 58.3566 15.5566C58.3566 13.056 57.7303 11.136 56.4594 9.86058C55.4034 8.75429 53.9131 8.22858 51.9429 8.22858H47.2571V23.1269H51.8469V23.1223Z" fill="black"/>
<path d="M66.2332 22.3543C65.6572 23.2412 65.2 24.0137 64.7932 24.8046H62.0549C63.376 23.0994 63.6869 22.6423 64.1943 21.9474L69.0217 15.1497L64.7703 9.14287C64.0983 8.22858 63.5452 7.48344 62.8 6.5463H65.4926C65.7806 7.19544 66.1874 7.8903 66.8366 8.82744L70.2743 13.8972L73.5886 8.82744C74.4297 7.55201 74.6446 7.19544 74.9097 6.5463H77.6252C76.9532 7.36458 76.3497 8.15544 75.632 9.16572L71.4034 15.1497L76.208 21.9017C76.6652 22.5509 77.2412 23.3189 78.416 24.8092H75.6549C74.96 23.6069 74.6949 23.1497 74.1646 22.3817L70.2012 16.448L66.2332 22.3543Z" fill="black"/>
<path d="M89.9451 7.26858C89.9451 6.18515 89.8994 5.63658 89.776 5.08344H91.7234C91.6046 5.75544 91.5543 6.26286 91.5543 7.26858V13.3486H97.872V8.80915C97.872 8.13715 97.8491 7.60686 97.776 7.05372H99.5771C99.4811 7.74858 99.4583 8.20572 99.4583 8.87772V13.6594C99.4583 14.1394 99.4811 14.4777 99.5086 14.8846C99.0286 14.8617 98.4754 14.8343 98.0183 14.8343H91.5543V23.6297H98.7131V19.0629C98.7131 18.1989 98.6903 17.5954 98.5943 16.9966H100.418C100.322 17.6229 100.299 18.1989 100.299 19.136V24.5669C100.299 25.4309 100.345 25.9612 100.441 26.5874H98.7131V25.1429H83.0971V26.5829H81.3691C81.4651 25.984 81.5154 25.3349 81.5154 24.5623V19.2777C81.5154 18.3634 81.4926 17.7417 81.3966 17.1383H83.2206C83.1246 17.7372 83.1017 18.2674 83.1017 19.1817V23.6252H89.9497V14.8343H83.9429C83.5086 14.8343 82.96 14.8572 82.4526 14.8846C82.4754 14.4274 82.5029 14.0663 82.5029 13.6594V8.90058C82.5029 8.30172 82.4526 7.72115 82.384 7.04915H84.1851C84.112 7.55201 84.0891 8.08229 84.0891 8.82744V13.344H89.9497V7.26858H89.9451Z" fill="black"/>
<path d="M107.029 17.9566C106.791 22.3314 106.334 24.5394 105.205 26.8206C104.77 26.3634 104.533 26.1714 103.861 25.7874C105.182 23.5749 105.689 20.2834 105.689 13.632V8.3703C105.689 7.26401 105.639 6.56915 105.52 5.82401H107.275C107.179 6.4503 107.157 7.33715 107.157 8.48915V11.7806H109.991V7.62515C109.991 6.68801 109.945 5.92001 109.849 5.31658H111.554C111.458 5.91544 111.435 6.68801 111.435 7.62515V11.7806C112.853 11.7577 113.045 11.7577 113.575 11.6617V13.2252C113.022 13.152 112.638 13.1292 111.317 13.1292H107.161C107.161 14.7154 107.138 15.4377 107.088 16.6126H109.707C110.667 16.6126 111.175 16.5897 111.723 16.5166C111.65 17.0194 111.65 17.4766 111.65 18.6286V24.0092C111.65 25.2343 111.673 25.9063 111.769 26.6514H110.064C110.16 25.9291 110.206 25.3532 110.206 23.9863V17.9566H107.029ZM116.062 13.2023C115.774 20.5303 115.175 23.5337 113.301 26.9212C112.798 26.3909 112.77 26.368 112.053 25.9612C113.182 24.1097 113.685 22.5509 114.119 19.424C114.503 16.6126 114.649 13.9703 114.649 8.70858C114.649 7.24115 114.626 6.78858 114.553 5.9703C115.106 6.04344 115.947 6.08915 116.958 6.08915H122.942C124.025 6.08915 124.912 6.03887 125.561 5.94287V7.57487C124.793 7.50172 123.879 7.45601 122.992 7.45601H116.144V9.5223C116.144 10.1943 116.121 10.7977 116.098 11.8766H122.009C123.093 11.8766 123.714 11.8537 124.121 11.7577L124.962 12.576C124.793 13.0103 124.77 13.0789 124.601 13.8012C124.263 15.0994 123.472 17.2389 122.846 18.5097C122.389 19.424 121.909 20.2149 121.333 21.056C122.677 22.8343 123.975 23.9634 126.114 25.2343C125.68 25.7646 125.465 26.0983 125.177 26.7017C123.111 25.2846 121.813 24.0594 120.418 22.2812C118.951 24.1554 117.776 25.2617 115.637 26.6789C115.326 26.1029 115.038 25.7417 114.626 25.3577C116.693 24.1783 118.037 23.0263 119.577 21.056C118.16 18.7474 117.415 16.6812 116.839 13.1977H116.062V13.2023ZM118.151 13.2023C118.681 16.1097 119.303 17.9109 120.482 19.808C121.758 17.8149 122.571 15.8217 123.198 13.2023H118.151Z" fill="black"/>
</g>
<defs>
<clipPath id="clip0">
<path d="M0 0H124.105V32H0V0Z" fill="white"/>
</clipPath>
</defs>
</svg>
